<?xml version="1.0" encoding="utf-8"?>
<!-- Generator: Adobe Illustrator 19.1.0, SVG Export Plug-In . SVG Version: 6.00 Build 0)  -->
<svg version="1.1" id="Layer_1" xmlns="http://www.w3.org/2000/svg" xmlns:xlink="http://www.w3.org/1999/xlink" x="0px" y="0px"
	 viewBox="84 -174 960 960" style="enable-background:new 84 -174 960 960;" xml:space="preserve">
<style type="text/css">
	.st0{fill:#D7DE27;}
	.st1{fill:#D91F5D;}
	.st2{fill:#1D76BB;}
	.st3{fill:#90298D;}
	.st4{fill:#28A8E0;}
	.st5{fill:#059347;}
	.st6{fill:#F69321;}
	.st7{fill:#3BB34A;}
	.st8{fill:#F15B2A;}
	.st9{fill:#FFFFFF;}
</style>
<g>
	<g>
		<g>
			<path class="st0" d="M661.9,124.7l-19,9.2c-0.4-0.8-1.3-1.4-2.3-1.4c-0.6,0-1.2,0.2-1.6,0.6l-25.4-29.9L661.9,124.7z"/>
			<path class="st1" d="M652.4,167.6c-0.8,0.3-1.5,0.8-2,1.5l-39.2-33.3l27.1-0.3c0.3,1,1.3,1.8,2.4,1.8c0.1,0,0.3,0,0.4-0.1
				L652.4,167.6z"/>
			<path class="st2" d="M686.5,177.2l-18-25.2l14.7-1.8l0.7,1L686.5,177.2z"/>
			<path class="st3" d="M649.9,169.5c-0.3,0.5-0.5,1-0.7,1.6l-47-15.7l8.2-19.5L649.9,169.5z"/>
			<path class="st4" d="M658.6,174.7c0.3-0.7,0.5-1.5,0.5-2.3c0-1.3-0.5-2.5-1.3-3.4l10.1-16.6l18.6,26.1l0.9,9.1L658.6,174.7z"/>
			<path class="st5" d="M667.5,151.9l-10.1,16.7c-0.9-0.8-2-1.3-3.3-1.3c-0.4,0-0.8,0.1-1.2,0.2l-11.3-30.3c0.3-0.1,0.5-0.3,0.8-0.5
				L667.5,151.9z"/>
			<path class="st2" d="M687.9,191.6l-3.5,4l-47.2,7.6l15.7-26c0.4,0.1,0.8,0.2,1.3,0.2c0.6,0,1.2-0.1,1.7-0.3l3,8
				c-0.9,0.3-1.5,1.2-1.5,2.2c0,1.3,1,2.4,2.3,2.4s2.4-1,2.4-2.4c0-1.4-1-2.4-2.4-2.4c-0.1,0-0.2,0-0.2,0l-3-8l0,0
				c0.8-0.4,1.4-0.9,1.9-1.6l29.3,12.9L687.9,191.6z"/>
			<path class="st6" d="M579.7,136.5l-44.3,25.3c-1.1-1.9-3.2-3.2-5.6-3.2c-3.5,0-6.4,2.8-6.5,6.4c-0.3-0.2-0.8-0.3-1.2-0.3l-2.4-46
				c4-1,6.8-4.7,6.8-8.9c0-1.2-0.2-2.3-0.6-3.4l53.6,28.2c-0.1,0.2-0.1,0.4-0.1,0.7C579.5,135.7,579.5,136.1,579.7,136.5z"/>
			<path class="st7" d="M588,177.3c0,0.3,0,0.7,0.1,0.9l-41.2,22.9c-0.8-1.6-2.6-2.8-4.6-2.8c-2.9,0-5.2,2.3-5.2,5.2l-38,1.6
				c-0.5-1-1.2-2-2-2.7l23.1-30.5c0.5,0.3,1.1,0.4,1.7,0.4c1.7,0,3.1-1.1,3.7-2.6c1.2,1.1,2.7,1.7,4.4,1.7c3.2,0,5.8-2.3,6.3-5.3
				l52.3,9C588.1,175.8,588,176.6,588,177.3z"/>
			<path class="st7" d="M682.7,149.7l-14.7,1.8l-0.1-0.2l-0.1,0.1l-25.1-15.2c0.2-0.4,0.4-0.8,0.4-1.3c0-0.2,0-0.4-0.1-0.5l19.5-9.4
				l1.3,0.6L682.7,149.7z"/>
			<path class="st5" d="M638.7,133.4c-0.3,0.4-0.5,0.9-0.5,1.5v0.1l-27.8,0.3h-25c0-1.2-0.7-2.1-1.6-2.6l18.5-34.6l10.1,4.5
				L638.7,133.4z"/>
			<path class="st0" d="M519.6,171.7l-23,30.5c-2.1-2-5.1-3.2-8.2-3.2c-4.9,0-9.1,2.9-11,7l-10-7.5l51.5-27.6
				C519,171.2,519.3,171.5,519.6,171.7z"/>
			<path class="st0" d="M521.6,164.6c-1.6,0.1-3,1.2-3.5,2.7l-34.8-11.1c0.5-1,0.8-2.3,0.8-3.5c0-3.1-1.8-5.8-4.3-7.1l29.3-31.6
				c1.5,3,4.7,4.9,8.2,4.9c0.6,0,1.3-0.1,1.9-0.2L521.6,164.6z"/>
			<path class="st3" d="M572.1,232.9l-6,13.6l-10.4,9l-7.4,3.4c0,0-11.5-8.6-13.9-11.6l8-38.5c1.7-0.1,3.3-0.9,4.2-2.3l20.9,15.5
				c-0.9,1.2-1.4,2.6-1.4,4.1C566.1,229.6,568.7,232.5,572.1,232.9z"/>
			<path class="st1" d="M598.2,225.8c0,2.3,0.9,4.4,2.3,6l-16.9-2.5l-4-1.2c0.2-0.7,0.3-1.3,0.3-2c0-3.8-3.1-6.9-6.9-6.9
				c-2.1,0-4,0.9-5.2,2.4l-20.9-15.5c0.4-0.7,0.6-1.5,0.6-2.4c0-0.7-0.1-1.3-0.3-1.9l41.1-22.9c0.7,1.9,2.4,3.3,4.6,3.3
				c0.5,0,0.9-0.1,1.4-0.2l10.5,35.3C600.9,218.4,598.2,221.8,598.2,225.8z"/>
			<path class="st3" d="M652.4,177l-18.8,31c-0.8-2.4-3-4.1-5.7-4.1c-1.6,0-3.1,0.6-4.1,1.6l0,0l-27.5-25c0.8-0.8,1.3-2,1.3-3.2
				c0-0.5-0.1-1-0.3-1.5l52.1-2C649.8,175.3,650.9,176.5,652.4,177z"/>
			<path class="st8" d="M592.2,172.6c-1.4,0.2-2.6,0.9-3.4,2l-52.6-9c0-0.2,0-0.3,0-0.5c0-0.9-0.2-1.9-0.6-2.7l44.3-25.3
				c0.5,0.8,1.4,1.3,2.4,1.3L592.2,172.6z"/>
			<path class="st4" d="M683.8,196.3l-13.6,15.3l-34.2-2.3l-2.1-0.7l2.9-4.8L683.8,196.3z"/>
			<path class="st3" d="M625.8,216.2l-9.7,8.3c-0.7-4.3-4.3-7.6-8.9-7.6c-0.7,0-1.4,0.1-2,0.2l-10.5-35.3c0.4-0.2,0.9-0.4,1.2-0.8
				l27.2,24.7l0.1,0.4c-0.9,1-1.4,2.4-1.4,3.8c0,2.6,1.6,4.8,3.8,5.7l0,0L625.8,216.2z"/>
			<path class="st4" d="M538,206.6l-42.8,14.6c3.2-2.1,5.4-5.9,5.4-10.1c0-1.9-0.4-3.7-1.3-5.3l37.8-1.6
				C537.2,205.1,537.4,205.9,538,206.6z"/>
			<path class="st4" d="M541.8,208.8l-8,38.2c-1.6,2-8.4,8-8.4,8l-13.1-2.9l-2.7-5.6l29.1-39C539.6,208.2,540.6,208.7,541.8,208.8z"
				/>
			<path class="st1" d="M649.2,173.3l-52.2,2c-0.5-1-1.3-1.8-2.3-2.3l7.2-17l47.2,15.8c-0.1,0.2-0.1,0.4-0.1,0.6
				C649.1,172.7,649.1,173,649.2,173.3z"/>
			<path class="st6" d="M610,135.8l-15.7,37c-0.5-0.2-1-0.3-1.5-0.3l-9.7-34.4c1.2-0.2,2.1-1.2,2.4-2.4L610,135.8L610,135.8z"/>
			<path class="st5" d="M518.5,170.5L466.8,198l-1.7-1.3l8.5-36.4c0.8,0.3,1.6,0.4,2.5,0.4c3,0,5.6-1.6,6.9-4l34.9,11.1
				c0,0.2,0,0.4,0,0.6C517.9,169.2,518.1,169.9,518.5,170.5z"/>
			<path class="st0" d="M601.8,97.9l-18.5,34.5c-0.3-0.1-0.5-0.1-0.9-0.1c-1.2,0-2.3,0.7-2.7,1.8l-53.1-28l74.6-8.4L601.8,97.9z"/>
			<path class="st2" d="M538.4,207L538.4,207l-29.5,39.6l-6.7,2l-10.3-14.2l-2.3-10.6l48.7-16.7h0.1V207z"/>
		</g>
		<circle class="st2" cx="489.6" cy="210.9" r="6.8"/>
		<circle class="st8" cx="530" cy="165" r="3.6"/>
		<circle class="st5" cx="476.1" cy="152.9" r="4.9"/>
		<circle class="st6" cx="517.4" cy="109.9" r="5.9"/>
		<circle class="st3" cx="607.3" cy="225.8" r="6"/>
		<circle class="st1" cx="573.2" cy="226.2" r="4.9"/>
		<circle class="st1" cx="627.8" cy="209.8" r="3.8"/>
		<circle class="st7" cx="592.8" cy="177.3" r="3.3"/>
		<circle class="st3" cx="654.2" cy="172.3" r="3.6"/>
		<circle class="st5" cx="640.7" cy="135" r="1.4"/>
		<circle class="st5" cx="521.6" cy="168.5" r="2.4"/>
		<circle class="st8" cx="582.3" cy="135.3" r="1.7"/>
		<circle class="st2" cx="542.2" cy="203.6" r="3.2"/>
		<circle class="st4" cx="659.7" cy="187.4" r="1.3"/>
	</g>
	<g>
		<g>
			<path class="st9" d="M435.8,358.2c-3.8,2.1-8.7,3.1-14.7,3.1c-4.5,0-8.7-0.8-12.6-2.5c-3.9-1.6-7.2-3.9-10-6.7
				c-2.8-2.8-4.9-6.2-6.5-10c-1.6-3.8-2.4-7.9-2.4-12.2v-0.2c0-4.3,0.8-8.4,2.4-12.2c1.6-3.8,3.8-7.2,6.5-10.1
				c2.8-2.9,6.1-5.1,10-6.8c3.9-1.6,8.1-2.5,12.8-2.5c5.7,0,10.5,0.9,14.2,2.7c3.8,1.8,7.1,4.3,10,7.5L435,319.6c-2-2-4-3.6-6-4.8
				c-2.1-1.2-4.7-1.8-7.8-1.8c-2.2,0-4.2,0.4-5.9,1.3c-1.8,0.9-3.3,2-4.6,3.6c-1.3,1.5-2.4,3.2-3.1,5.3c-0.7,2-1.1,4.1-1.1,6.4v0.2
				c0,2.4,0.3,4.5,1.1,6.5c0.7,2,1.8,3.8,3.1,5.3c1.4,1.5,3,2.7,4.8,3.6c1.9,0.9,4,1.3,6.3,1.3c2.9,0,5.4-0.6,7.5-1.8
				c2.1-1.2,4.3-2.7,6.4-4.7l10.1,10.2C443,353.5,439.6,356.1,435.8,358.2z"/>
			<path class="st9" d="M496.8,359.9v-6.5c-2.1,2.4-4.6,4.2-7.6,5.6c-2.9,1.4-6.5,2.1-10.7,2.1c-2.9,0-5.6-0.4-8.1-1.2
				c-2.5-0.8-4.7-2-6.6-3.6s-3.4-3.5-4.5-5.8c-1.1-2.3-1.6-4.9-1.6-8v-0.2c0-3.3,0.6-6.2,1.8-8.6c1.2-2.4,2.9-4.4,5.1-6
				c2.1-1.6,4.7-2.7,7.7-3.6c3-0.8,6.3-1.2,9.9-1.2c3.1,0,5.8,0.2,8.1,0.7c2.3,0.4,4.6,1,6.7,1.8v-1c0-3.6-1.1-6.4-3.3-8.2
				c-2.2-1.9-5.4-2.8-9.7-2.8c-3.3,0-6.2,0.3-8.7,0.8s-5.2,1.4-8,2.4l-4.3-13.1c3.3-1.4,6.8-2.6,10.4-3.5s8-1.4,13.1-1.4
				c9.4,0,16.3,2.3,20.6,6.9c4.3,4.6,6.4,11,6.4,19.2v35.2L496.8,359.9L496.8,359.9L496.8,359.9z M497.1,335.5
				c-1.5-0.7-3.2-1.2-5.1-1.6c-1.9-0.4-3.8-0.6-5.9-0.6c-3.7,0-6.6,0.7-8.7,2.1c-2.1,1.4-3.2,3.5-3.2,6.2v0.2c0,2.4,0.9,4.1,2.6,5.4
				c1.8,1.3,4,1.9,6.8,1.9c4.1,0,7.3-1,9.8-2.9c2.5-2,3.7-4.5,3.7-7.7L497.1,335.5L497.1,335.5z"/>
			<path class="st9" d="M607.8,359.9v-33.7c0-4.1-0.9-7.1-2.6-9.2c-1.8-2.1-4.2-3.1-7.5-3.1c-3.2,0-5.8,1-7.6,3.1
				c-1.9,2.1-2.7,5.1-2.7,9.2v33.7h-17.2v-33.7c0-4.1-0.9-7.1-2.6-9.2c-1.8-2.1-4.2-3.1-7.5-3.1s-5.8,1-7.6,3.1
				c-1.9,2.1-2.7,5.1-2.7,9.2v33.7h-17.2v-60.6h17.2v8.7c1-1.3,2-2.5,3.2-3.7c1.2-1.2,2.5-2.2,3.9-3.1s3-1.6,4.8-2.1
				s3.7-0.8,5.9-0.8c4,0,7.4,0.8,10.3,2.5c2.9,1.6,5.2,4.1,6.7,7.1c2.6-3.2,5.6-5.6,8.8-7.3c3.2-1.6,6.9-2.5,11.1-2.5
				c6.4,0,11.4,1.9,15.1,5.7c3.6,3.8,5.4,9.3,5.4,16.6v39.5H607.8L607.8,359.9z"/>
			<path class="st9" d="M682.1,359.9v-8.7c-1,1.3-2,2.5-3.2,3.7c-1.2,1.2-2.5,2.2-3.9,3.1c-1.4,0.9-3,1.6-4.7,2.1
				c-1.8,0.5-3.7,0.8-5.9,0.8c-6.5,0-11.6-2-15.2-6c-3.6-4-5.4-9.5-5.4-16.5v-39.3h17.1v33.7c0,4.1,0.9,7.1,2.7,9.2
				c1.8,2.1,4.4,3.1,7.7,3.1s5.9-1,7.9-3.1c1.9-2.1,2.9-5.1,2.9-9.2v-33.7h17.2v60.6L682.1,359.9L682.1,359.9z"/>
			<path class="st9" d="M761.6,350.3c-1.2,2.5-2.8,4.5-4.9,6c-2.1,1.6-4.6,2.7-7.4,3.6c-2.8,0.8-5.9,1.2-9.1,1.2
				c-4.3,0-8.7-0.7-13.2-2.2s-8.7-3.8-12.8-6.9l7.4-11.3c3.3,2.4,6.6,4.2,9.9,5.4c3.3,1.2,6.3,1.8,9.2,1.8c2.5,0,4.3-0.4,5.5-1.3
				c1.2-0.8,1.8-1.9,1.8-3.3v-0.2c0-0.9-0.3-1.7-1-2.4c-0.7-0.7-1.6-1.3-2.7-1.8c-1.2-0.5-2.5-0.9-4-1.4c-1.5-0.4-3.1-0.9-4.7-1.5
				c-2.1-0.6-4.2-1.3-6.4-2.2c-2.1-0.9-4.1-2-5.8-3.4c-1.8-1.4-3.1-3.1-4.2-5.2c-1.1-2.1-1.6-4.5-1.6-7.5v-0.1
				c0-3.1,0.6-5.8,1.8-8.2s2.7-4.4,4.7-6s4.3-2.9,7-3.7c2.7-0.8,5.6-1.3,8.6-1.3c3.8,0,7.8,0.6,11.7,1.9c4,1.3,7.6,3,10.9,5.2
				l-6.5,11.9c-3-1.8-5.9-3.1-8.8-4.1c-2.9-1-5.4-1.5-7.6-1.5c-2.1,0-3.7,0.4-4.7,1.2c-1,0.8-1.6,1.8-1.6,3v0.2c0,0.8,0.3,1.5,1,2.2
				c0.7,0.7,1.6,1.3,2.7,1.8c1.2,0.5,2.4,1.1,3.9,1.6s3,1,4.7,1.6c2.1,0.7,4.2,1.5,6.4,2.4s4.1,2.1,5.9,3.5c1.8,1.4,3.2,3,4.3,4.9
				c1.2,2,1.7,4.3,1.7,7.1v0.2C763.4,344.9,762.8,347.8,761.6,350.3z"/>
		</g>
		<g>
			<path class="st9" d="M502.1,415c-2.1,0.9-4.6,1.4-7.4,1.4c-2.4,0-4.6-0.4-6.5-1.2c-2-0.8-3.6-1.9-5.1-3.2c-1.4-1.4-2.5-3-3.3-4.9
				s-1.2-4-1.2-6.3v-0.1c0-2.2,0.4-4.2,1.2-6.1c0.8-1.9,1.9-3.6,3.4-5c1.4-1.4,3.1-2.6,5.1-3.4c1.9-0.8,4.1-1.3,6.4-1.3
				c1.4,0,2.6,0.1,3.7,0.3c1.1,0.2,2.1,0.4,3.1,0.8c0.9,0.3,1.9,0.8,2.7,1.3s1.6,1.1,2.4,1.8l-4.2,5.1c-0.6-0.5-1.2-0.9-1.8-1.3
				c-0.6-0.4-1.2-0.7-1.8-0.9c-0.6-0.3-1.3-0.4-2-0.6s-1.5-0.2-2.4-0.2c-1.2,0-2.4,0.3-3.4,0.8s-2,1.2-2.8,2c-0.8,0.9-1.4,1.9-1.9,3
				c-0.4,1.2-0.7,2.4-0.7,3.7v0.1c0,1.4,0.2,2.7,0.7,3.8c0.4,1.2,1.1,2.2,1.9,3.1s1.8,1.5,2.9,2s2.4,0.7,3.7,0.7
				c2.5,0,4.6-0.6,6.3-1.8v-4.4h-6.8v-5.9h13.2v13.2C506.1,412.9,504.2,414,502.1,415z"/>
			<path class="st9" d="M541.3,415.9l-6.5-9.7h-5.3v9.7h-6.7v-30.5h13.9c3.6,0,6.4,0.9,8.5,2.6c2,1.8,3,4.2,3,7.4v0.1
				c0,2.5-0.6,4.5-1.8,6c-1.2,1.6-2.7,2.7-4.7,3.4l7.4,10.9h-7.8V415.9z M541.4,395.9c0-1.4-0.4-2.5-1.4-3.2
				c-0.9-0.7-2.2-1.1-3.8-1.1h-6.7v8.7h6.8c1.6,0,2.9-0.4,3.8-1.2C541,398.2,541.4,397.2,541.4,395.9L541.4,395.9L541.4,395.9z"/>
			<path class="st9" d="M592.8,406.8c-0.8,1.9-1.9,3.6-3.4,5c-1.4,1.4-3.1,2.6-5.1,3.4s-4.2,1.3-6.5,1.3c-2.3,0-4.5-0.4-6.5-1.3
				s-3.7-1.9-5.1-3.4c-1.4-1.4-2.5-3.1-3.4-4.9c-0.8-1.9-1.2-4-1.2-6.1v-0.1c0-2.2,0.4-4.2,1.2-6.1c0.8-1.9,1.9-3.6,3.4-5
				c1.4-1.4,3.1-2.6,5.1-3.4s4.2-1.3,6.5-1.3c2.3,0,4.5,0.4,6.5,1.3s3.7,1.9,5.1,3.4s2.5,3.1,3.4,4.9c0.8,1.9,1.2,4,1.2,6.1v0.1
				C594,402.9,593.6,404.9,592.8,406.8z M587,400.6c0-1.3-0.2-2.5-0.7-3.7c-0.4-1.2-1.1-2.2-1.9-3c-0.8-0.9-1.8-1.5-2.9-2.1
				c-1.1-0.6-2.4-0.8-3.7-0.8c-1.4,0-2.6,0.2-3.7,0.7c-1.1,0.5-2.1,1.2-2.9,2c-0.8,0.9-1.4,1.9-1.9,3c-0.4,1.2-0.7,2.4-0.7,3.7v0.1
				c0,1.3,0.2,2.5,0.7,3.7c0.4,1.2,1.1,2.2,1.9,3c0.8,0.9,1.8,1.5,2.9,2.1c1.1,0.5,2.4,0.8,3.7,0.8c1.3,0,2.6-0.2,3.7-0.7
				c1.2-0.5,2.1-1.2,2.9-2c0.8-0.9,1.4-1.9,1.9-3c0.4-1.2,0.7-2.4,0.7-3.7V400.6L587,400.6z"/>
			<path class="st9" d="M633.7,408.6c-0.6,1.7-1.5,3.1-2.7,4.3c-1.2,1.2-2.6,2-4.2,2.6c-1.6,0.5-3.5,0.8-5.5,0.8
				c-4.1,0-7.3-1.2-9.7-3.4c-2.4-2.3-3.5-5.7-3.5-10.1v-17.4h6.7v17.2c0,2.5,0.6,4.4,1.8,5.6c1.2,1.3,2.7,1.9,4.8,1.9
				c2,0,3.7-0.6,4.8-1.8c1.2-1.2,1.8-3,1.8-5.5v-17.4h6.7v17.2C634.7,404.9,634.4,406.9,633.7,408.6z"/>
			<path class="st9" d="M673.4,400.8c-0.7,1.3-1.5,2.5-2.6,3.4s-2.4,1.6-3.9,2s-3.1,0.7-4.8,0.7h-5.2v9.1h-6.7v-30.5h12.4
				c1.8,0,3.5,0.3,4.9,0.8s2.6,1.2,3.6,2.1s1.8,2,2.3,3.4c0.5,1.3,0.8,2.7,0.8,4.3v0.1C674.3,397.9,674,399.4,673.4,400.8z
				 M667.5,396.1c0-1.5-0.5-2.6-1.4-3.4c-1-0.8-2.3-1.2-4-1.2h-5.2v9.3h5.3c1.7,0,3-0.4,3.9-1.3s1.4-2,1.4-3.3V396.1L667.5,396.1z"
				/>
		</g>
	</g>
</g>
</svg>
