<?xml version="1.0" encoding="utf-8"?>
<!-- Generator: Adobe Illustrator 19.1.0, SVG Export Plug-In . SVG Version: 6.00 Build 0)  -->
<svg version="1.1" id="Layer_1" xmlns="http://www.w3.org/2000/svg" xmlns:xlink="http://www.w3.org/1999/xlink" x="0px" y="0px"
	 viewBox="84 -174 960 960" style="enable-background:new 84 -174 960 960;" xml:space="preserve">
<style type="text/css">
	.st0{fill:#D7DE27;}
	.st1{fill:#D91F5D;}
	.st2{fill:#1D76BB;}
	.st3{fill:#90298D;}
	.st4{fill:#28A8E0;}
	.st5{fill:#059347;}
	.st6{fill:#F69321;}
	.st7{fill:#3BB34A;}
	.st8{fill:#F15B2A;}
	.st9{fill:#FFFFFF;}
</style>
<g>
	<g>
		<g>
			<path class="st0" d="M542,22.1l-19,9.2c-0.4-0.8-1.3-1.4-2.3-1.4c-0.6,0-1.2,0.2-1.6,0.6L493.7,0.6L542,22.1z"/>
			<path class="st1" d="M532.5,65c-0.8,0.3-1.5,0.8-2,1.5l-39.2-33.3l27.1-0.3c0.3,1,1.3,1.8,2.4,1.8c0.1,0,0.3,0,0.4-0.1L532.5,65z
				"/>
			<path class="st2" d="M566.6,74.6l-18-25.2l14.7-1.8l0.7,1L566.6,74.6z"/>
			<path class="st3" d="M530,66.9c-0.3,0.5-0.5,1-0.7,1.6l-47-15.7l8.2-19.5L530,66.9z"/>
			<path class="st4" d="M538.7,72.1c0.3-0.7,0.5-1.5,0.5-2.3c0-1.3-0.5-2.5-1.3-3.4L548,49.8l18.6,26.1l0.9,9.1L538.7,72.1z"/>
			<path class="st5" d="M547.6,49.3L537.5,66c-0.9-0.8-2-1.3-3.3-1.3c-0.4,0-0.8,0.1-1.2,0.2l-11.3-30.3c0.3-0.1,0.5-0.3,0.8-0.5
				L547.6,49.3z"/>
			<path class="st2" d="M568,89l-3.5,4l-47.2,7.6l15.7-26c0.4,0.1,0.8,0.2,1.3,0.2c0.6,0,1.2-0.1,1.7-0.3l3,8
				c-0.9,0.3-1.5,1.2-1.5,2.2c0,1.3,1,2.4,2.3,2.4c1.3,0,2.4-1,2.4-2.4s-1-2.4-2.4-2.4c-0.1,0-0.2,0-0.2,0l-3-8l0,0
				c0.8-0.4,1.4-0.9,1.9-1.6l29.3,12.9L568,89z"/>
			<path class="st6" d="M459.8,33.9l-44.3,25.3c-1.1-1.9-3.2-3.2-5.6-3.2c-3.5,0-6.4,2.8-6.5,6.4c-0.3-0.2-0.8-0.3-1.2-0.3l-2.4-46
				c4-1,6.8-4.7,6.8-8.9c0-1.2-0.2-2.3-0.6-3.4L459.6,32c-0.1,0.2-0.1,0.4-0.1,0.7C459.6,33.1,459.6,33.5,459.8,33.9z"/>
			<path class="st7" d="M468.1,74.7c0,0.3,0,0.7,0.1,0.9l-41.2,22.9c-0.8-1.6-2.6-2.8-4.6-2.8c-2.9,0-5.2,2.3-5.2,5.2l-38,1.6
				c-0.5-1-1.2-2-2-2.7l23.1-30.5c0.5,0.3,1.1,0.4,1.7,0.4c1.7,0,3.1-1.1,3.7-2.6c1.2,1.1,2.7,1.7,4.4,1.7c3.2,0,5.8-2.3,6.3-5.3
				l52.3,9C468.2,73.2,468.1,74,468.1,74.7z"/>
			<path class="st7" d="M562.8,47.1l-14.7,1.8l-0.1-0.2l-0.1,0.1l-25.1-15.2c0.2-0.4,0.4-0.8,0.4-1.3c0-0.2,0-0.4-0.1-0.5l19.5-9.4
				l1.3,0.6L562.8,47.1z"/>
			<path class="st5" d="M518.8,30.8c-0.3,0.4-0.5,0.9-0.5,1.5v0.1l-27.8,0.3h-25c0-1.2-0.7-2.1-1.6-2.6l18.5-34.6L492.5,0
				L518.8,30.8z"/>
			<path class="st0" d="M399.7,69.1l-23,30.5c-2.1-2-5.1-3.2-8.2-3.2c-4.9,0-9.1,2.9-11,7l-10-7.5L399,68.3
				C399.1,68.6,399.4,68.9,399.7,69.1z"/>
			<path class="st0" d="M401.7,62c-1.6,0.1-3,1.2-3.5,2.7l-34.8-11.1c0.5-1,0.8-2.3,0.8-3.5c0-3.1-1.8-5.8-4.3-7.1l29.3-31.6
				c1.5,3,4.7,4.9,8.2,4.9c0.6,0,1.3-0.1,1.9-0.2L401.7,62z"/>
			<path class="st3" d="M452.2,130.3l-6,13.6l-10.4,9l-7.4,3.4c0,0-11.5-8.6-13.9-11.6l8-38.5c1.7-0.1,3.3-0.9,4.2-2.3l20.9,15.5
				c-0.9,1.2-1.4,2.6-1.4,4.1C446.2,127,448.8,129.9,452.2,130.3z"/>
			<path class="st1" d="M478.3,123.2c0,2.3,0.9,4.4,2.3,6l-16.9-2.5l-4-1.2c0.2-0.7,0.3-1.3,0.3-2c0-3.8-3.1-6.9-6.9-6.9
				c-2.1,0-4,0.9-5.2,2.4l-20.9-15.5c0.4-0.7,0.6-1.5,0.6-2.4c0-0.7-0.1-1.3-0.3-1.9l41.1-22.9c0.7,1.9,2.4,3.3,4.6,3.3
				c0.5,0,0.9-0.1,1.4-0.2l10.5,35.3C481,115.8,478.3,119.2,478.3,123.2z"/>
			<path class="st3" d="M532.5,74.4l-18.8,31c-0.8-2.4-3-4.1-5.7-4.1c-1.6,0-3.1,0.6-4.1,1.6l0,0l-27.5-25c0.8-0.8,1.3-2,1.3-3.2
				c0-0.5-0.1-1-0.3-1.5l52.1-2C529.9,72.7,531,73.9,532.5,74.4z"/>
			<path class="st8" d="M472.3,70c-1.4,0.2-2.6,0.9-3.4,2L416.3,63c0-0.2,0-0.3,0-0.5c0-0.9-0.2-1.9-0.6-2.7l44.3-25.3
				c0.5,0.8,1.4,1.3,2.4,1.3L472.3,70z"/>
			<path class="st4" d="M563.9,93.7L550.3,109l-34.2-2.3l-2.1-0.7l2.9-4.8L563.9,93.7z"/>
			<path class="st3" d="M505.9,113.6l-9.7,8.3c-0.7-4.3-4.3-7.6-8.9-7.6c-0.7,0-1.4,0.1-2,0.2l-10.5-35.3c0.4-0.2,0.9-0.4,1.2-0.8
				l27.2,24.7l0.1,0.4c-0.9,1-1.4,2.4-1.4,3.8c0,2.6,1.6,4.8,3.8,5.7l0,0L505.9,113.6z"/>
			<path class="st4" d="M418.1,104l-42.8,14.6c3.2-2.1,5.4-5.9,5.4-10.1c0-1.9-0.4-3.7-1.3-5.3l37.8-1.6
				C417.3,102.5,417.5,103.3,418.1,104z"/>
			<path class="st4" d="M421.9,106.2l-8,38.2c-1.6,2-8.4,8-8.4,8l-13.1-2.9l-2.7-5.6l29.1-39C419.7,105.6,420.7,106.1,421.9,106.2z"
				/>
			<path class="st1" d="M529.3,70.7l-52.2,2c-0.5-1-1.3-1.8-2.3-2.3l7.2-17l47.2,15.8c-0.1,0.2-0.1,0.4-0.1,0.6
				C529.2,70.1,529.2,70.4,529.3,70.7z"/>
			<path class="st6" d="M490.1,33.2l-15.7,37c-0.5-0.2-1-0.3-1.5-0.3l-9.7-34.4c1.2-0.2,2.1-1.2,2.4-2.4L490.1,33.2L490.1,33.2z"/>
			<path class="st5" d="M398.6,67.9l-51.7,27.5l-1.7-1.3l8.5-36.4c0.8,0.3,1.6,0.4,2.5,0.4c3,0,5.6-1.6,6.9-4l34.9,11.1
				c0,0.2,0,0.4,0,0.6C398,66.6,398.2,67.3,398.6,67.9z"/>
			<path class="st0" d="M481.9-4.7l-18.5,34.5c-0.3-0.1-0.5-0.1-0.9-0.1c-1.2,0-2.3,0.7-2.7,1.8l-53.1-28l74.6-8.4L481.9-4.7z"/>
			<path class="st2" d="M418.5,104.4L418.5,104.4L389,144l-6.7,2L372,131.8l-2.3-10.6l48.7-16.7H418.5z"/>
		</g>
		<circle class="st2" cx="369.7" cy="108.3" r="6.8"/>
		<circle class="st8" cx="410.1" cy="62.4" r="3.6"/>
		<circle class="st5" cx="356.2" cy="50.3" r="4.9"/>
		<circle class="st6" cx="397.5" cy="7.3" r="5.9"/>
		<circle class="st3" cx="487.4" cy="123.2" r="6"/>
		<circle class="st1" cx="453.3" cy="123.6" r="4.9"/>
		<circle class="st1" cx="507.9" cy="107.2" r="3.8"/>
		<circle class="st7" cx="472.9" cy="74.7" r="3.3"/>
		<circle class="st3" cx="534.3" cy="69.7" r="3.6"/>
		<circle class="st5" cx="520.8" cy="32.4" r="1.4"/>
		<circle class="st5" cx="401.7" cy="65.9" r="2.4"/>
		<circle class="st8" cx="462.4" cy="32.7" r="1.7"/>
		<circle class="st2" cx="422.3" cy="101" r="3.2"/>
		<circle class="st4" cx="539.8" cy="84.8" r="1.3"/>
	</g>
	<g>
		<g>
			<path class="st9" d="M315.9,255.6c-3.8,2.1-8.7,3.1-14.7,3.1c-4.5,0-8.7-0.8-12.6-2.5c-3.9-1.6-7.2-3.9-10-6.7
				c-2.8-2.8-4.9-6.2-6.5-10c-1.6-3.8-2.4-7.9-2.4-12.2v-0.2c0-4.3,0.8-8.4,2.4-12.2c1.6-3.8,3.8-7.2,6.5-10.1
				c2.8-2.9,6.1-5.1,10-6.8c3.9-1.6,8.1-2.5,12.8-2.5c5.7,0,10.5,0.9,14.2,2.7c3.8,1.8,7.1,4.3,10,7.5l-10.5,11.3c-2-2-4-3.6-6-4.8
				c-2.1-1.2-4.7-1.8-7.8-1.8c-2.2,0-4.2,0.4-5.9,1.3c-1.8,0.9-3.3,2-4.6,3.6c-1.3,1.5-2.4,3.2-3.1,5.3c-0.7,2-1.1,4.1-1.1,6.4v0.2
				c0,2.4,0.3,4.5,1.1,6.5c0.7,2,1.8,3.8,3.1,5.3c1.4,1.5,3,2.7,4.8,3.6c1.9,0.9,4,1.3,6.3,1.3c2.9,0,5.4-0.6,7.5-1.8
				c2.1-1.2,4.3-2.7,6.4-4.7l10.1,10.2C323.1,250.9,319.7,253.5,315.9,255.6z"/>
			<path class="st9" d="M376.9,257.3v-6.5c-2.1,2.4-4.6,4.2-7.6,5.6c-2.9,1.4-6.5,2.1-10.7,2.1c-2.9,0-5.6-0.4-8.1-1.2
				c-2.5-0.8-4.7-2-6.6-3.6s-3.4-3.5-4.5-5.8s-1.6-4.9-1.6-8v-0.2c0-3.3,0.6-6.2,1.8-8.6c1.2-2.4,2.9-4.4,5.1-6
				c2.1-1.6,4.7-2.7,7.7-3.6c3-0.8,6.3-1.2,9.9-1.2c3.1,0,5.8,0.2,8.1,0.7c2.3,0.4,4.6,1,6.7,1.8v-1c0-3.6-1.1-6.4-3.3-8.2
				c-2.2-1.9-5.4-2.8-9.7-2.8c-3.3,0-6.2,0.3-8.7,0.8c-2.5,0.5-5.2,1.4-8,2.4l-4.3-13.1c3.3-1.4,6.8-2.6,10.4-3.5
				c3.6-0.9,8-1.4,13.1-1.4c9.4,0,16.3,2.3,20.6,6.9c4.3,4.6,6.4,11,6.4,19.2v35.2h-16.7V257.3z M377.2,232.9
				c-1.5-0.7-3.2-1.2-5.1-1.6s-3.8-0.6-5.9-0.6c-3.7,0-6.6,0.7-8.7,2.1c-2.1,1.4-3.2,3.5-3.2,6.2v0.2c0,2.4,0.9,4.1,2.6,5.4
				c1.8,1.3,4,1.9,6.8,1.9c4.1,0,7.3-1,9.8-2.9c2.5-2,3.7-4.5,3.7-7.7L377.2,232.9L377.2,232.9z"/>
			<path class="st9" d="M487.9,257.3v-33.7c0-4.1-0.9-7.1-2.6-9.2c-1.8-2.1-4.2-3.1-7.5-3.1c-3.2,0-5.8,1-7.6,3.1
				c-1.9,2.1-2.7,5.1-2.7,9.2v33.7h-17.2v-33.7c0-4.1-0.9-7.1-2.6-9.2c-1.8-2.1-4.2-3.1-7.5-3.1s-5.8,1-7.6,3.1
				c-1.9,2.1-2.7,5.1-2.7,9.2v33.7h-17.2v-60.6h17.2v8.7c1-1.3,2-2.5,3.2-3.7c1.2-1.2,2.5-2.2,3.9-3.1c1.4-0.9,3-1.6,4.8-2.1
				c1.8-0.5,3.7-0.8,5.9-0.8c4,0,7.4,0.8,10.3,2.5c2.9,1.6,5.2,4.1,6.7,7.1c2.6-3.2,5.6-5.6,8.8-7.3c3.2-1.6,6.9-2.5,11.1-2.5
				c6.4,0,11.4,1.9,15.1,5.7c3.6,3.8,5.4,9.3,5.4,16.6v39.5L487.9,257.3L487.9,257.3z"/>
			<path class="st9" d="M562.2,257.3v-8.7c-1,1.3-2,2.5-3.2,3.7c-1.2,1.2-2.5,2.2-3.9,3.1c-1.4,0.9-3,1.6-4.7,2.1
				c-1.8,0.5-3.7,0.8-5.9,0.8c-6.5,0-11.6-2-15.2-6c-3.6-4-5.4-9.5-5.4-16.5v-39.3H541v33.7c0,4.1,0.9,7.1,2.7,9.2
				c1.8,2.1,4.4,3.1,7.7,3.1s5.9-1,7.9-3.1c1.9-2.1,2.9-5.1,2.9-9.2v-33.7h17.2v60.6L562.2,257.3L562.2,257.3z"/>
			<path class="st9" d="M641.7,247.7c-1.2,2.5-2.8,4.5-4.9,6c-2.1,1.6-4.6,2.7-7.4,3.6c-2.8,0.8-5.9,1.2-9.1,1.2
				c-4.3,0-8.7-0.7-13.2-2.2c-4.5-1.5-8.7-3.8-12.8-6.9l7.4-11.3c3.3,2.4,6.6,4.2,9.9,5.4c3.3,1.2,6.3,1.8,9.2,1.8
				c2.5,0,4.3-0.4,5.5-1.3c1.2-0.8,1.8-1.9,1.8-3.3v-0.2c0-0.9-0.3-1.7-1-2.4c-0.7-0.7-1.6-1.3-2.7-1.8c-1.2-0.5-2.5-0.9-4-1.4
				c-1.5-0.4-3.1-0.9-4.7-1.5c-2.1-0.6-4.2-1.3-6.4-2.2c-2.1-0.9-4.1-2-5.8-3.4c-1.8-1.4-3.1-3.1-4.2-5.2s-1.6-4.5-1.6-7.5V215
				c0-3.1,0.6-5.8,1.8-8.2s2.7-4.4,4.7-6c2-1.6,4.3-2.9,7-3.7s5.6-1.3,8.6-1.3c3.8,0,7.8,0.6,11.7,1.9c4,1.3,7.6,3,10.9,5.2
				l-6.5,11.9c-3-1.8-5.9-3.1-8.8-4.1c-2.9-1-5.4-1.5-7.6-1.5c-2.1,0-3.7,0.4-4.7,1.2c-1,0.8-1.6,1.8-1.6,3v0.2c0,0.8,0.3,1.5,1,2.2
				c0.7,0.7,1.6,1.3,2.7,1.8c1.2,0.5,2.4,1.1,3.9,1.6s3,1,4.7,1.6c2.1,0.7,4.2,1.5,6.4,2.4s4.1,2.1,5.9,3.5c1.8,1.4,3.2,3,4.3,4.9
				c1.2,2,1.7,4.3,1.7,7.1v0.2C643.5,242.3,642.9,245.2,641.7,247.7z"/>
		</g>
		<g>
			<path class="st9" d="M382.2,312.4c-2.1,0.9-4.6,1.4-7.4,1.4c-2.4,0-4.6-0.4-6.5-1.2c-2-0.8-3.6-1.9-5.1-3.2
				c-1.4-1.4-2.5-3-3.3-4.9c-0.8-1.9-1.2-4-1.2-6.3v-0.1c0-2.2,0.4-4.2,1.2-6.1c0.8-1.9,1.9-3.6,3.4-5c1.4-1.4,3.1-2.6,5.1-3.4
				c1.9-0.8,4.1-1.3,6.4-1.3c1.4,0,2.6,0.1,3.7,0.3c1.1,0.2,2.1,0.4,3.1,0.8c0.9,0.3,1.9,0.8,2.7,1.3s1.6,1.1,2.4,1.8l-4.2,5.1
				c-0.6-0.5-1.2-0.9-1.8-1.3c-0.6-0.4-1.2-0.7-1.8-0.9c-0.6-0.3-1.3-0.4-2-0.6c-0.7-0.2-1.5-0.2-2.4-0.2c-1.2,0-2.4,0.3-3.4,0.8
				c-1,0.5-2,1.2-2.8,2c-0.8,0.9-1.4,1.9-1.9,3c-0.4,1.2-0.7,2.4-0.7,3.7v0.1c0,1.4,0.2,2.7,0.7,3.8c0.4,1.2,1.1,2.2,1.9,3.1
				c0.8,0.9,1.8,1.5,2.9,2c1.1,0.5,2.4,0.7,3.7,0.7c2.5,0,4.6-0.6,6.3-1.8v-4.4h-6.8v-5.9h13.2v13.2
				C386.2,310.3,384.3,311.4,382.2,312.4z"/>
			<path class="st9" d="M421.4,313.3l-6.5-9.7h-5.3v9.7h-6.7v-30.5h13.9c3.6,0,6.4,0.9,8.5,2.6c2,1.8,3,4.2,3,7.4v0.1
				c0,2.5-0.6,4.5-1.8,6c-1.2,1.6-2.7,2.7-4.7,3.4l7.4,10.9H421.4z M421.5,293.2c0-1.4-0.4-2.5-1.4-3.2c-0.9-0.7-2.2-1.1-3.8-1.1
				h-6.7v8.7h6.8c1.6,0,2.9-0.4,3.8-1.2c0.9-0.8,1.3-1.8,1.3-3.1L421.5,293.2L421.5,293.2z"/>
			<path class="st9" d="M472.9,304.1c-0.8,1.9-1.9,3.6-3.4,5c-1.4,1.4-3.1,2.6-5.1,3.4s-4.2,1.3-6.5,1.3c-2.3,0-4.5-0.4-6.5-1.3
				s-3.7-1.9-5.1-3.4c-1.4-1.4-2.5-3.1-3.4-4.9c-0.8-1.9-1.2-4-1.2-6.1V298c0-2.2,0.4-4.2,1.2-6.1c0.8-1.9,1.9-3.6,3.4-5
				c1.4-1.4,3.1-2.6,5.1-3.4s4.2-1.3,6.5-1.3c2.3,0,4.5,0.4,6.5,1.3s3.7,1.9,5.1,3.4s2.5,3.1,3.4,4.9c0.8,1.9,1.2,4,1.2,6.1v0.1
				C474.1,300.2,473.7,302.2,472.9,304.1z M467.1,298c0-1.3-0.2-2.5-0.7-3.7c-0.4-1.2-1.1-2.2-1.9-3c-0.8-0.9-1.8-1.5-2.9-2.1
				s-2.4-0.8-3.7-0.8c-1.4,0-2.6,0.2-3.7,0.7c-1.1,0.5-2.1,1.2-2.9,2c-0.8,0.9-1.4,1.9-1.9,3c-0.4,1.2-0.7,2.4-0.7,3.7v0.1
				c0,1.3,0.2,2.5,0.7,3.7c0.4,1.2,1.1,2.2,1.9,3c0.8,0.9,1.8,1.5,2.9,2.1c1.1,0.5,2.4,0.8,3.7,0.8c1.3,0,2.6-0.2,3.7-0.7
				c1.2-0.5,2.1-1.2,2.9-2c0.8-0.9,1.4-1.9,1.9-3c0.4-1.2,0.7-2.4,0.7-3.7L467.1,298L467.1,298z"/>
			<path class="st9" d="M513.8,306c-0.6,1.7-1.5,3.1-2.7,4.3c-1.2,1.2-2.6,2-4.2,2.6c-1.6,0.5-3.5,0.8-5.5,0.8
				c-4.1,0-7.3-1.2-9.7-3.4c-2.4-2.3-3.5-5.7-3.5-10.1v-17.4h6.7V300c0,2.5,0.6,4.4,1.8,5.6c1.2,1.3,2.7,1.9,4.8,1.9
				c2,0,3.7-0.6,4.8-1.8c1.2-1.2,1.8-3,1.8-5.5v-17.4h6.7v17.2C514.8,302.3,514.5,304.3,513.8,306z"/>
			<path class="st9" d="M553.5,298.1c-0.7,1.3-1.5,2.5-2.6,3.4s-2.4,1.6-3.9,2c-1.5,0.4-3.1,0.7-4.8,0.7H537v9.1h-6.7v-30.5h12.4
				c1.8,0,3.5,0.3,4.9,0.8c1.4,0.5,2.6,1.2,3.6,2.1c1,0.9,1.8,2,2.3,3.4c0.5,1.3,0.8,2.7,0.8,4.3v0.1
				C554.4,295.2,554.1,296.7,553.5,298.1z M547.6,293.5c0-1.5-0.5-2.6-1.4-3.4c-1-0.8-2.3-1.2-4-1.2h-5.2v9.3h5.3
				c1.7,0,3-0.4,3.9-1.3c0.9-0.9,1.4-2,1.4-3.3L547.6,293.5L547.6,293.5z"/>
		</g>
	</g>
</g>
</svg>
